<svg xmlns="http://www.w3.org/2000/svg" width="420" height="142" viewBox="0 0 420 142"><g transform="translate(10 10)"><rect x="0.5" y="0.5" width="399" height="121" rx="6" fill="#0d1117" stroke="#3d444d"/><path transform="translate(16 17) scale(1)" fill="#9198a1" d="M2 2.5A2.5 2.5 0 0 1 4.5 0h8.75a.75.75 0 0 1 .75.75v12.5a.75.75 0 0 1-.75.75h-2.5a.75.75 0 0 1 0-1.5h1.75v-2h-8a1 1 0 0 0-.714 1.7.75.75 0 1 1-1.072 1.05A2.495 2.495 0 0 1 2 11.5Zm10.5-1h-8a1 1 0 0 0-1 1v6.708A2.486 2.486 0 0 1 4.5 9h8ZM5 12.25a.25.25 0 0 1 .25-.25h3.5a.25.25 0 0 1 .25.25v3.25a.25.25 0 0 1-.4.2l-1.45-1.087a.249.249 0 0 0-.3 0L5.4 15.7a.25.25 0 0 1-.4-.2Z"/><text x="40" y="29" font-family="-apple-system,BlinkMacSystemFont,&quot;Segoe UI&quot;,&quot;Noto Sans&quot;,Helvetica,Arial,sans-serif" font-size="16" font-weight="600" fill="#4493f8">fugue</text><text x="16" y="53" font-family="-apple-system,BlinkMacSystemFont,&quot;Segoe UI&quot;,&quot;Noto Sans&quot;,Helvetica,Arial,sans-serif" font-size="14" fill="#9198a1">more text, less editor</text><circle cx="21.5" cy="98" r="5.5" fill="#e34c26"/><text x="33" y="102.5" font-family="-apple-system,BlinkMacSystemFont,&quot;Segoe UI&quot;,&quot;Noto Sans&quot;,Helvetica,Arial,sans-serif" font-size="14" fill="#9198a1">HTML</text></g></svg>